<svg xmlns="http://www.w3.org/2000/svg" xmlns:xlink="http://www.w3.org/1999/xlink" width="300" zoomAndPan="magnify" viewBox="0 0 224.87999 74.999997" height="100" preserveAspectRatio="xMidYMid meet" version="1.0"><defs><g/><clipPath id="0cab6be0bc"><path d="M 0 8.332031 L 55.46875 8.332031 L 55.46875 66.800781 L 0 66.800781 Z M 0 8.332031 " clip-rule="nonzero"/></clipPath><clipPath id="9278fa74da"><path d="M 31.863281 35.570312 L 7.105469 35.570312 C 6.144531 35.570312 5.449219 34.652344 5.710938 33.722656 L 12.507812 9.394531 C 12.683594 8.765625 13.253906 8.332031 13.902344 8.332031 L 38.660156 8.332031 C 39.621094 8.332031 40.316406 9.253906 40.058594 10.179688 L 33.261719 34.507812 C 33.085938 35.136719 32.515625 35.570312 31.863281 35.570312 Z M 15.785156 53.9375 L 19.28125 41.410156 C 19.542969 40.480469 18.847656 39.558594 17.886719 39.558594 L 5.160156 39.558594 C 4.511719 39.558594 3.941406 39.996094 3.765625 40.621094 L 0.265625 53.148438 C 0.00390625 54.078125 0.699219 55 1.660156 55 L 14.386719 55 C 15.039062 55 15.609375 54.5625 15.785156 53.9375 Z M 22.222656 40.621094 L 15.425781 64.953125 C 15.167969 65.878906 15.863281 66.800781 16.824219 66.800781 L 41.582031 66.800781 C 42.230469 66.800781 42.800781 66.367188 42.976562 65.738281 L 49.773438 41.410156 C 50.035156 40.480469 49.339844 39.558594 48.378906 39.558594 L 23.621094 39.558594 C 22.96875 39.558594 22.398438 39.996094 22.222656 40.621094 Z M 39.699219 21.195312 L 36.199219 33.722656 C 35.941406 34.652344 36.636719 35.570312 37.597656 35.570312 L 50.324219 35.570312 C 50.972656 35.570312 51.542969 35.136719 51.71875 34.507812 L 55.21875 21.984375 C 55.480469 21.054688 54.785156 20.132812 53.824219 20.132812 L 41.097656 20.132812 C 40.445312 20.132812 39.875 20.566406 39.699219 21.195312 Z M 39.699219 21.195312 " clip-rule="nonzero"/></clipPath><linearGradient x1="114.296452" gradientTransform="matrix(0.116435, 0, 0, 0.116938, 0.209911, 8.331658)" y1="-47.633946" x2="358.611276" gradientUnits="userSpaceOnUse" y2="547.608256" id="1aa852962a"><stop stop-opacity="1" stop-color="rgb(79.199219%, 0%, 98.799133%)" offset="0"/><stop stop-opacity="1" stop-color="rgb(79.199219%, 0%, 98.799133%)" offset="0.0625"/><stop stop-opacity="1" stop-color="rgb(79.066467%, 0.0854492%, 98.800659%)" offset="0.09375"/><stop stop-opacity="1" stop-color="rgb(78.573608%, 0.401306%, 98.809814%)" offset="0.0976562"/><stop stop-opacity="1" stop-color="rgb(78.215027%, 0.63324%, 98.815918%)" offset="0.101562"/><stop stop-opacity="1" stop-color="rgb(77.854919%, 0.863647%, 98.822021%)" offset="0.105469"/><stop stop-opacity="1" stop-color="rgb(77.496338%, 1.095581%, 98.829651%)" offset="0.109375"/><stop stop-opacity="1" stop-color="rgb(77.13623%, 1.325989%, 98.835754%)" offset="0.113281"/><stop stop-opacity="1" stop-color="rgb(76.776123%, 1.557922%, 98.841858%)" offset="0.117187"/><stop stop-opacity="1" stop-color="rgb(76.416016%, 1.789856%, 98.847961%)" offset="0.121094"/><stop stop-opacity="1" stop-color="rgb(76.057434%, 2.02179%, 98.854065%)" offset="0.125"/><stop stop-opacity="1" stop-color="rgb(75.697327%, 2.252197%, 98.860168%)" offset="0.128906"/><stop stop-opacity="1" stop-color="rgb(75.338745%, 2.484131%, 98.867798%)" offset="0.132812"/><stop stop-opacity="1" stop-color="rgb(74.978638%, 2.714539%, 98.873901%)" offset="0.136719"/><stop stop-opacity="1" stop-color="rgb(74.620056%, 2.946472%, 98.880005%)" offset="0.140625"/><stop stop-opacity="1" stop-color="rgb(74.259949%, 3.17688%, 98.886108%)" offset="0.144531"/><stop stop-opacity="1" stop-color="rgb(73.901367%, 3.408813%, 98.892212%)" offset="0.148438"/><stop stop-opacity="1" stop-color="rgb(73.54126%, 3.640747%, 98.898315%)" offset="0.152344"/><stop stop-opacity="1" stop-color="rgb(73.182678%, 3.872681%, 98.904419%)" offset="0.15625"/><stop stop-opacity="1" stop-color="rgb(72.822571%, 4.103088%, 98.910522%)" offset="0.160156"/><stop stop-opacity="1" stop-color="rgb(72.463989%, 4.335022%, 98.918152%)" offset="0.164062"/><stop stop-opacity="1" stop-color="rgb(72.103882%, 4.56543%, 98.924255%)" offset="0.167969"/><stop stop-opacity="1" stop-color="rgb(71.7453%, 4.797363%, 98.930359%)" offset="0.171875"/><stop stop-opacity="1" stop-color="rgb(71.385193%, 5.027771%, 98.936462%)" offset="0.175781"/><stop stop-opacity="1" stop-color="rgb(71.026611%, 5.259705%, 98.942566%)" offset="0.179687"/><stop stop-opacity="1" stop-color="rgb(70.666504%, 5.491638%, 98.948669%)" offset="0.183594"/><stop stop-opacity="1" stop-color="rgb(70.307922%, 5.723572%, 98.956299%)" offset="0.1875"/><stop stop-opacity="1" stop-color="rgb(69.947815%, 5.953979%, 98.962402%)" offset="0.191406"/><stop stop-opacity="1" stop-color="rgb(69.589233%, 6.185913%, 98.968506%)" offset="0.195312"/><stop stop-opacity="1" stop-color="rgb(69.229126%, 6.416321%, 98.974609%)" offset="0.199219"/><stop stop-opacity="1" stop-color="rgb(68.870544%, 6.648254%, 98.980713%)" offset="0.203125"/><stop stop-opacity="1" stop-color="rgb(68.510437%, 6.878662%, 98.986816%)" offset="0.207031"/><stop stop-opacity="1" stop-color="rgb(68.15033%, 7.110596%, 98.99292%)" offset="0.210937"/><stop stop-opacity="1" stop-color="rgb(67.790222%, 7.341003%, 98.999023%)" offset="0.214844"/><stop stop-opacity="1" stop-color="rgb(67.431641%, 7.572937%, 99.006653%)" offset="0.21875"/><stop stop-opacity="1" stop-color="rgb(67.071533%, 7.804871%, 99.012756%)" offset="0.222656"/><stop stop-opacity="1" stop-color="rgb(66.712952%, 8.036804%, 99.01886%)" offset="0.226562"/><stop stop-opacity="1" stop-color="rgb(66.352844%, 8.267212%, 99.024963%)" offset="0.230469"/><stop stop-opacity="1" stop-color="rgb(65.994263%, 8.499146%, 99.031067%)" offset="0.234375"/><stop stop-opacity="1" stop-color="rgb(65.634155%, 8.729553%, 99.03717%)" offset="0.238281"/><stop stop-opacity="1" stop-color="rgb(65.275574%, 8.961487%, 99.0448%)" offset="0.242187"/><stop stop-opacity="1" stop-color="rgb(64.915466%, 9.191895%, 99.050903%)" offset="0.246094"/><stop stop-opacity="1" stop-color="rgb(64.556885%, 9.423828%, 99.057007%)" offset="0.25"/><stop stop-opacity="1" stop-color="rgb(64.196777%, 9.655762%, 99.06311%)" offset="0.253906"/><stop stop-opacity="1" stop-color="rgb(63.838196%, 9.887695%, 99.069214%)" offset="0.257812"/><stop stop-opacity="1" stop-color="rgb(63.478088%, 10.118103%, 99.075317%)" offset="0.261719"/><stop stop-opacity="1" stop-color="rgb(63.119507%, 10.350037%, 99.081421%)" offset="0.265625"/><stop stop-opacity="1" stop-color="rgb(62.759399%, 10.580444%, 99.087524%)" offset="0.269531"/><stop stop-opacity="1" stop-color="rgb(62.400818%, 10.812378%, 99.095154%)" offset="0.273437"/><stop stop-opacity="1" stop-color="rgb(62.04071%, 11.042786%, 99.101257%)" offset="0.277344"/><stop stop-opacity="1" stop-color="rgb(61.682129%, 11.274719%, 99.107361%)" offset="0.28125"/><stop stop-opacity="1" stop-color="rgb(61.322021%, 11.506653%, 99.113464%)" offset="0.285156"/><stop stop-opacity="1" stop-color="rgb(60.96344%, 11.738586%, 99.119568%)" offset="0.289062"/><stop stop-opacity="1" stop-color="rgb(60.603333%, 11.968994%, 99.125671%)" offset="0.292969"/><stop stop-opacity="1" stop-color="rgb(60.243225%, 12.200928%, 99.133301%)" offset="0.296875"/><stop stop-opacity="1" stop-color="rgb(59.883118%, 12.431335%, 99.139404%)" offset="0.300781"/><stop stop-opacity="1" stop-color="rgb(59.524536%, 12.663269%, 99.145508%)" offset="0.304687"/><stop stop-opacity="1" stop-color="rgb(59.164429%, 12.893677%, 99.151611%)" offset="0.308594"/><stop stop-opacity="1" stop-color="rgb(58.805847%, 13.12561%, 99.157715%)" offset="0.3125"/><stop stop-opacity="1" stop-color="rgb(58.44574%, 13.357544%, 99.163818%)" offset="0.316406"/><stop stop-opacity="1" stop-color="rgb(58.087158%, 13.589478%, 99.171448%)" offset="0.320312"/><stop stop-opacity="1" stop-color="rgb(57.727051%, 13.819885%, 99.177551%)" offset="0.324219"/><stop stop-opacity="1" stop-color="rgb(57.368469%, 14.051819%, 99.183655%)" offset="0.328125"/><stop stop-opacity="1" stop-color="rgb(57.008362%, 14.282227%, 99.189758%)" offset="0.332031"/><stop stop-opacity="1" stop-color="rgb(56.64978%, 14.51416%, 99.195862%)" offset="0.335937"/><stop stop-opacity="1" stop-color="rgb(56.289673%, 14.744568%, 99.201965%)" offset="0.339844"/><stop stop-opacity="1" stop-color="rgb(55.931091%, 14.976501%, 99.208069%)" offset="0.34375"/><stop stop-opacity="1" stop-color="rgb(55.570984%, 15.208435%, 99.214172%)" offset="0.347656"/><stop stop-opacity="1" stop-color="rgb(55.212402%, 15.440369%, 99.221802%)" offset="0.351562"/><stop stop-opacity="1" stop-color="rgb(54.852295%, 15.670776%, 99.227905%)" offset="0.355469"/><stop stop-opacity="1" stop-color="rgb(54.493713%, 15.90271%, 99.234009%)" offset="0.359375"/><stop stop-opacity="1" stop-color="rgb(54.133606%, 16.133118%, 99.240112%)" offset="0.363281"/><stop stop-opacity="1" stop-color="rgb(53.775024%, 16.365051%, 99.246216%)" offset="0.367187"/><stop stop-opacity="1" stop-color="rgb(53.414917%, 16.595459%, 99.252319%)" offset="0.371094"/><stop stop-opacity="1" stop-color="rgb(53.056335%, 16.827393%, 99.259949%)" offset="0.375"/><stop stop-opacity="1" stop-color="rgb(52.696228%, 17.0578%, 99.266052%)" offset="0.378906"/><stop stop-opacity="1" stop-color="rgb(52.336121%, 17.289734%, 99.272156%)" offset="0.382812"/><stop stop-opacity="1" stop-color="rgb(51.976013%, 17.521667%, 99.278259%)" offset="0.386719"/><stop stop-opacity="1" stop-color="rgb(51.617432%, 17.753601%, 99.284363%)" offset="0.390625"/><stop stop-opacity="1" stop-color="rgb(51.257324%, 17.984009%, 99.290466%)" offset="0.394531"/><stop stop-opacity="1" stop-color="rgb(50.898743%, 18.215942%, 99.29657%)" offset="0.398437"/><stop stop-opacity="1" stop-color="rgb(50.538635%, 18.44635%, 99.302673%)" offset="0.402344"/><stop stop-opacity="1" stop-color="rgb(50.180054%, 18.678284%, 99.310303%)" offset="0.40625"/><stop stop-opacity="1" stop-color="rgb(49.819946%, 18.908691%, 99.316406%)" offset="0.410156"/><stop stop-opacity="1" stop-color="rgb(49.461365%, 19.140625%, 99.32251%)" offset="0.414062"/><stop stop-opacity="1" stop-color="rgb(49.101257%, 19.372559%, 99.328613%)" offset="0.417969"/><stop stop-opacity="1" stop-color="rgb(48.742676%, 19.604492%, 99.334717%)" offset="0.421875"/><stop stop-opacity="1" stop-color="rgb(48.382568%, 19.8349%, 99.34082%)" offset="0.425781"/><stop stop-opacity="1" stop-color="rgb(48.023987%, 20.066833%, 99.34845%)" offset="0.429687"/><stop stop-opacity="1" stop-color="rgb(47.663879%, 20.297241%, 99.354553%)" offset="0.433594"/><stop stop-opacity="1" stop-color="rgb(47.305298%, 20.529175%, 99.360657%)" offset="0.4375"/><stop stop-opacity="1" stop-color="rgb(46.94519%, 20.759583%, 99.36676%)" offset="0.441406"/><stop stop-opacity="1" stop-color="rgb(46.586609%, 20.991516%, 99.372864%)" offset="0.445312"/><stop stop-opacity="1" stop-color="rgb(46.226501%, 21.22345%, 99.378967%)" offset="0.449219"/><stop stop-opacity="1" stop-color="rgb(45.86792%, 21.455383%, 99.385071%)" offset="0.453125"/><stop stop-opacity="1" stop-color="rgb(45.507812%, 21.685791%, 99.391174%)" offset="0.457031"/><stop stop-opacity="1" stop-color="rgb(45.149231%, 21.917725%, 99.398804%)" offset="0.460937"/><stop stop-opacity="1" stop-color="rgb(44.789124%, 22.148132%, 99.404907%)" offset="0.464844"/><stop stop-opacity="1" stop-color="rgb(44.429016%, 22.380066%, 99.411011%)" offset="0.46875"/><stop stop-opacity="1" stop-color="rgb(44.068909%, 22.610474%, 99.417114%)" offset="0.472656"/><stop stop-opacity="1" stop-color="rgb(43.710327%, 22.842407%, 99.423218%)" offset="0.476562"/><stop stop-opacity="1" stop-color="rgb(43.35022%, 23.074341%, 99.429321%)" offset="0.480469"/><stop stop-opacity="1" stop-color="rgb(42.991638%, 23.306274%, 99.436951%)" offset="0.484375"/><stop stop-opacity="1" stop-color="rgb(42.631531%, 23.536682%, 99.443054%)" offset="0.488281"/><stop stop-opacity="1" stop-color="rgb(42.272949%, 23.768616%, 99.449158%)" offset="0.492187"/><stop stop-opacity="1" stop-color="rgb(41.912842%, 23.999023%, 99.455261%)" offset="0.496094"/><stop stop-opacity="1" stop-color="rgb(41.55426%, 24.230957%, 99.461365%)" offset="0.5"/><stop stop-opacity="1" stop-color="rgb(41.194153%, 24.461365%, 99.467468%)" offset="0.503906"/><stop stop-opacity="1" stop-color="rgb(40.835571%, 24.693298%, 99.473572%)" offset="0.507812"/><stop stop-opacity="1" stop-color="rgb(40.475464%, 24.925232%, 99.479675%)" offset="0.511719"/><stop stop-opacity="1" stop-color="rgb(40.116882%, 25.157166%, 99.487305%)" offset="0.515625"/><stop stop-opacity="1" stop-color="rgb(39.756775%, 25.387573%, 99.493408%)" offset="0.519531"/><stop stop-opacity="1" stop-color="rgb(39.398193%, 25.619507%, 99.499512%)" offset="0.523437"/><stop stop-opacity="1" stop-color="rgb(39.038086%, 25.849915%, 99.505615%)" offset="0.527344"/><stop stop-opacity="1" stop-color="rgb(38.679504%, 26.081848%, 99.511719%)" offset="0.53125"/><stop stop-opacity="1" stop-color="rgb(38.319397%, 26.312256%, 99.517822%)" offset="0.535156"/><stop stop-opacity="1" stop-color="rgb(37.960815%, 26.544189%, 99.525452%)" offset="0.539062"/><stop stop-opacity="1" stop-color="rgb(37.600708%, 26.774597%, 99.531555%)" offset="0.542969"/><stop stop-opacity="1" stop-color="rgb(37.242126%, 27.006531%, 99.537659%)" offset="0.546875"/><stop stop-opacity="1" stop-color="rgb(36.882019%, 27.238464%, 99.543762%)" offset="0.550781"/><stop stop-opacity="1" stop-color="rgb(36.521912%, 27.470398%, 99.549866%)" offset="0.554687"/><stop stop-opacity="1" stop-color="rgb(36.161804%, 27.700806%, 99.555969%)" offset="0.558594"/><stop stop-opacity="1" stop-color="rgb(35.803223%, 27.932739%, 99.562073%)" offset="0.5625"/><stop stop-opacity="1" stop-color="rgb(35.443115%, 28.163147%, 99.568176%)" offset="0.566406"/><stop stop-opacity="1" stop-color="rgb(35.084534%, 28.395081%, 99.575806%)" offset="0.570312"/><stop stop-opacity="1" stop-color="rgb(34.724426%, 28.625488%, 99.581909%)" offset="0.574219"/><stop stop-opacity="1" stop-color="rgb(34.365845%, 28.857422%, 99.588013%)" offset="0.578125"/><stop stop-opacity="1" stop-color="rgb(34.005737%, 29.089355%, 99.594116%)" offset="0.582031"/><stop stop-opacity="1" stop-color="rgb(33.647156%, 29.321289%, 99.60022%)" offset="0.585937"/><stop stop-opacity="1" stop-color="rgb(33.287048%, 29.551697%, 99.606323%)" offset="0.589844"/><stop stop-opacity="1" stop-color="rgb(32.928467%, 29.78363%, 99.613953%)" offset="0.59375"/><stop stop-opacity="1" stop-color="rgb(32.568359%, 30.014038%, 99.620056%)" offset="0.597656"/><stop stop-opacity="1" stop-color="rgb(32.209778%, 30.245972%, 99.62616%)" offset="0.601562"/><stop stop-opacity="1" stop-color="rgb(31.84967%, 30.476379%, 99.632263%)" offset="0.605469"/><stop stop-opacity="1" stop-color="rgb(31.491089%, 30.708313%, 99.638367%)" offset="0.609375"/><stop stop-opacity="1" stop-color="rgb(31.130981%, 30.940247%, 99.64447%)" offset="0.613281"/><stop stop-opacity="1" stop-color="rgb(30.7724%, 31.17218%, 99.650574%)" offset="0.617187"/><stop stop-opacity="1" stop-color="rgb(30.412292%, 31.402588%, 99.656677%)" offset="0.621094"/><stop stop-opacity="1" stop-color="rgb(30.053711%, 31.634521%, 99.664307%)" offset="0.625"/><stop stop-opacity="1" stop-color="rgb(29.693604%, 31.864929%, 99.67041%)" offset="0.628906"/><stop stop-opacity="1" stop-color="rgb(29.335022%, 32.096863%, 99.676514%)" offset="0.632812"/><stop stop-opacity="1" stop-color="rgb(28.974915%, 32.327271%, 99.682617%)" offset="0.636719"/><stop stop-opacity="1" stop-color="rgb(28.614807%, 32.559204%, 99.688721%)" offset="0.640625"/><stop stop-opacity="1" stop-color="rgb(28.2547%, 32.791138%, 99.694824%)" offset="0.644531"/><stop stop-opacity="1" stop-color="rgb(27.896118%, 33.023071%, 99.702454%)" offset="0.648438"/><stop stop-opacity="1" stop-color="rgb(27.536011%, 33.253479%, 99.708557%)" offset="0.652344"/><stop stop-opacity="1" stop-color="rgb(27.177429%, 33.485413%, 99.714661%)" offset="0.65625"/><stop stop-opacity="1" stop-color="rgb(26.817322%, 33.71582%, 99.720764%)" offset="0.660156"/><stop stop-opacity="1" stop-color="rgb(26.45874%, 33.947754%, 99.726868%)" offset="0.664062"/><stop stop-opacity="1" stop-color="rgb(26.098633%, 34.178162%, 99.732971%)" offset="0.667969"/><stop stop-opacity="1" stop-color="rgb(25.740051%, 34.410095%, 99.740601%)" offset="0.671875"/><stop stop-opacity="1" stop-color="rgb(25.379944%, 34.642029%, 99.746704%)" offset="0.675781"/><stop stop-opacity="1" stop-color="rgb(25.021362%, 34.873962%, 99.752808%)" offset="0.679687"/><stop stop-opacity="1" stop-color="rgb(24.661255%, 35.10437%, 99.758911%)" offset="0.683594"/><stop stop-opacity="1" stop-color="rgb(24.302673%, 35.336304%, 99.765015%)" offset="0.6875"/><stop stop-opacity="1" stop-color="rgb(23.942566%, 35.566711%, 99.771118%)" offset="0.691406"/><stop stop-opacity="1" stop-color="rgb(23.583984%, 35.798645%, 99.777222%)" offset="0.695312"/><stop stop-opacity="1" stop-color="rgb(23.223877%, 36.029053%, 99.783325%)" offset="0.699219"/><stop stop-opacity="1" stop-color="rgb(22.865295%, 36.260986%, 99.790955%)" offset="0.703125"/><stop stop-opacity="1" stop-color="rgb(22.505188%, 36.49292%, 99.797058%)" offset="0.707031"/><stop stop-opacity="1" stop-color="rgb(22.146606%, 36.724854%, 99.803162%)" offset="0.710937"/><stop stop-opacity="1" stop-color="rgb(21.786499%, 36.955261%, 99.809265%)" offset="0.714844"/><stop stop-opacity="1" stop-color="rgb(21.427917%, 37.187195%, 99.815369%)" offset="0.71875"/><stop stop-opacity="1" stop-color="rgb(21.06781%, 37.417603%, 99.821472%)" offset="0.722656"/><stop stop-opacity="1" stop-color="rgb(20.707703%, 37.649536%, 99.829102%)" offset="0.726562"/><stop stop-opacity="1" stop-color="rgb(20.347595%, 37.879944%, 99.835205%)" offset="0.730469"/><stop stop-opacity="1" stop-color="rgb(19.989014%, 38.111877%, 99.841309%)" offset="0.734375"/><stop stop-opacity="1" stop-color="rgb(19.628906%, 38.342285%, 99.847412%)" offset="0.738281"/><stop stop-opacity="1" stop-color="rgb(19.270325%, 38.574219%, 99.853516%)" offset="0.742187"/><stop stop-opacity="1" stop-color="rgb(18.910217%, 38.806152%, 99.859619%)" offset="0.746094"/><stop stop-opacity="1" stop-color="rgb(18.551636%, 39.038086%, 99.865723%)" offset="0.75"/><stop stop-opacity="1" stop-color="rgb(18.191528%, 39.268494%, 99.871826%)" offset="0.753906"/><stop stop-opacity="1" stop-color="rgb(17.832947%, 39.500427%, 99.879456%)" offset="0.757812"/><stop stop-opacity="1" stop-color="rgb(17.472839%, 39.730835%, 99.885559%)" offset="0.761719"/><stop stop-opacity="1" stop-color="rgb(17.114258%, 39.962769%, 99.891663%)" offset="0.765625"/><stop stop-opacity="1" stop-color="rgb(16.75415%, 40.193176%, 99.897766%)" offset="0.769531"/><stop stop-opacity="1" stop-color="rgb(16.395569%, 40.42511%, 99.90387%)" offset="0.773437"/><stop stop-opacity="1" stop-color="rgb(16.035461%, 40.657043%, 99.909973%)" offset="0.777344"/><stop stop-opacity="1" stop-color="rgb(15.67688%, 40.888977%, 99.917603%)" offset="0.78125"/><stop stop-opacity="1" stop-color="rgb(15.316772%, 41.119385%, 99.923706%)" offset="0.785156"/><stop stop-opacity="1" stop-color="rgb(14.958191%, 41.351318%, 99.92981%)" offset="0.789062"/><stop stop-opacity="1" stop-color="rgb(14.598083%, 41.581726%, 99.935913%)" offset="0.792969"/><stop stop-opacity="1" stop-color="rgb(14.239502%, 41.81366%, 99.942017%)" offset="0.796875"/><stop stop-opacity="1" stop-color="rgb(13.879395%, 42.044067%, 99.94812%)" offset="0.800781"/><stop stop-opacity="1" stop-color="rgb(13.520813%, 42.276001%, 99.954224%)" offset="0.804687"/><stop stop-opacity="1" stop-color="rgb(13.160706%, 42.507935%, 99.960327%)" offset="0.808594"/><stop stop-opacity="1" stop-color="rgb(12.800598%, 42.739868%, 99.967957%)" offset="0.8125"/><stop stop-opacity="1" stop-color="rgb(12.440491%, 42.970276%, 99.97406%)" offset="0.816406"/><stop stop-opacity="1" stop-color="rgb(12.081909%, 43.202209%, 99.980164%)" offset="0.820312"/><stop stop-opacity="1" stop-color="rgb(11.721802%, 43.432617%, 99.986267%)" offset="0.824219"/><stop stop-opacity="1" stop-color="rgb(11.36322%, 43.664551%, 99.992371%)" offset="0.828125"/><stop stop-opacity="1" stop-color="rgb(11.180115%, 43.782043%, 99.995422%)" offset="0.84375"/><stop stop-opacity="1" stop-color="rgb(10.998535%, 43.899536%, 100%)" offset="0.875"/><stop stop-opacity="1" stop-color="rgb(10.998535%, 43.899536%, 100%)" offset="1"/></linearGradient></defs><g clip-path="url(#0cab6be0bc)"><g clip-path="url(#9278fa74da)"><path fill="url(#1aa852962a)" d="M 0.00390625 8.332031 L 0.00390625 66.800781 L 55.46875 66.800781 L 55.46875 8.332031 Z M 0.00390625 8.332031 " fill-rule="nonzero"/></g></g><g fill="#1e2757" fill-opacity="1"><g transform="translate(58.02372, 54.415552)"><g><path d="M 19.765625 -15.75 L 19.765625 -15.5625 C 22.015625 -15.363281 23.617188 -14.597656 24.578125 -13.265625 C 25.535156 -11.941406 26.015625 -10.023438 26.015625 -7.515625 C 26.015625 -4.484375 25.242188 -2.414062 23.703125 -1.3125 C 22.160156 -0.207031 19.519531 0.34375 15.78125 0.34375 C 10.1875 0.34375 5.945312 0.226562 3.0625 0 L 3.0625 -30.171875 C 5.65625 -30.410156 9.429688 -30.53125 14.390625 -30.53125 C 18.410156 -30.53125 21.191406 -29.984375 22.734375 -28.890625 C 24.285156 -27.796875 25.0625 -25.71875 25.0625 -22.65625 C 25.0625 -20.46875 24.644531 -18.8125 23.8125 -17.6875 C 22.976562 -16.5625 21.628906 -15.914062 19.765625 -15.75 Z M 9.578125 -17.84375 L 14.4375 -17.84375 C 16.0625 -17.84375 17.171875 -18.101562 17.765625 -18.625 C 18.367188 -19.15625 18.671875 -20.191406 18.671875 -21.734375 C 18.671875 -23.253906 18.347656 -24.257812 17.703125 -24.75 C 17.066406 -25.25 15.859375 -25.5 14.078125 -25.5 L 9.578125 -25.546875 Z M 9.578125 -4.671875 L 14.65625 -4.671875 C 16.488281 -4.671875 17.722656 -4.941406 18.359375 -5.484375 C 19.003906 -6.023438 19.328125 -7.128906 19.328125 -8.796875 C 19.328125 -10.597656 18.988281 -11.8125 18.3125 -12.4375 C 17.644531 -13.0625 16.363281 -13.390625 14.46875 -13.421875 L 9.578125 -13.421875 Z M 9.578125 -4.671875 "/></g></g></g><g fill="#1e2757" fill-opacity="1"><g transform="translate(85.882528, 54.415552)"><g><path d="M 23.140625 -21.5625 L 23.140625 0 L 18.015625 0 L 17.53125 -2.96875 C 14.5625 -0.613281 11.585938 0.5625 8.609375 0.5625 C 4.554688 0.5625 2.53125 -1.429688 2.53125 -5.421875 L 2.53125 -21.5625 L 9.015625 -21.5625 L 9.015625 -7.390625 C 8.984375 -6.453125 9.140625 -5.796875 9.484375 -5.421875 C 9.835938 -5.046875 10.453125 -4.859375 11.328125 -4.859375 C 12.578125 -4.859375 14.367188 -5.453125 16.703125 -6.640625 L 16.703125 -21.5625 Z M 23.140625 -21.5625 "/></g></g></g><g fill="#1e2757" fill-opacity="1"><g transform="translate(111.685827, 54.415552)"><g><path d="M 9.09375 -30.609375 L 9.09375 -23.75 C 9.09375 -21.738281 8.90625 -20.046875 8.53125 -18.671875 C 10.800781 -21.003906 13.351562 -22.171875 16.1875 -22.171875 C 18.976562 -22.171875 20.992188 -21.300781 22.234375 -19.5625 C 23.472656 -17.832031 24.09375 -14.972656 24.09375 -10.984375 C 24.09375 -7.273438 23.332031 -4.425781 21.8125 -2.4375 C 20.300781 -0.457031 17.550781 0.53125 13.5625 0.53125 C 11.8125 0.53125 9.847656 0.382812 7.671875 0.09375 C 5.503906 -0.195312 3.804688 -0.609375 2.578125 -1.140625 L 2.578125 -30.609375 Z M 9.046875 -15.171875 L 9.046875 -4.671875 C 10.535156 -4.359375 11.992188 -4.226562 13.421875 -4.28125 C 14.910156 -4.34375 15.953125 -4.835938 16.546875 -5.765625 C 17.148438 -6.703125 17.453125 -8.425781 17.453125 -10.9375 C 17.453125 -13.320312 17.203125 -14.929688 16.703125 -15.765625 C 16.210938 -16.597656 15.175781 -17.015625 13.59375 -17.015625 C 12.40625 -17.015625 10.890625 -16.398438 9.046875 -15.171875 Z M 9.046875 -15.171875 "/></g></g></g><g fill="#1e2757" fill-opacity="1"><g transform="translate(137.576592, 54.415552)"><g><path d="M 9.09375 -30.609375 L 9.09375 -23.75 C 9.09375 -21.738281 8.90625 -20.046875 8.53125 -18.671875 C 10.800781 -21.003906 13.351562 -22.171875 16.1875 -22.171875 C 18.976562 -22.171875 20.992188 -21.300781 22.234375 -19.5625 C 23.472656 -17.832031 24.09375 -14.972656 24.09375 -10.984375 C 24.09375 -7.273438 23.332031 -4.425781 21.8125 -2.4375 C 20.300781 -0.457031 17.550781 0.53125 13.5625 0.53125 C 11.8125 0.53125 9.847656 0.382812 7.671875 0.09375 C 5.503906 -0.195312 3.804688 -0.609375 2.578125 -1.140625 L 2.578125 -30.609375 Z M 9.046875 -15.171875 L 9.046875 -4.671875 C 10.535156 -4.359375 11.992188 -4.226562 13.421875 -4.28125 C 14.910156 -4.34375 15.953125 -4.835938 16.546875 -5.765625 C 17.148438 -6.703125 17.453125 -8.425781 17.453125 -10.9375 C 17.453125 -13.320312 17.203125 -14.929688 16.703125 -15.765625 C 16.210938 -16.597656 15.175781 -17.015625 13.59375 -17.015625 C 12.40625 -17.015625 10.890625 -16.398438 9.046875 -15.171875 Z M 9.046875 -15.171875 "/></g></g></g><g fill="#1e2757" fill-opacity="1"><g transform="translate(163.467357, 54.415552)"><g><path d="M 9.140625 -30.609375 L 9.140625 -7.046875 C 9.140625 -5.585938 9.957031 -4.859375 11.59375 -4.859375 L 13.34375 -4.859375 L 14.078125 -0.34375 C 12.972656 0.238281 11.253906 0.53125 8.921875 0.53125 C 6.992188 0.53125 5.476562 0.015625 4.375 -1.015625 C 3.269531 -2.054688 2.71875 -3.523438 2.71875 -5.421875 L 2.71875 -30.609375 Z M 9.140625 -30.609375 "/></g></g></g><g fill="#1e2757" fill-opacity="1"><g transform="translate(177.768501, 54.415552)"><g><path d="M 24.234375 -21.5625 L 16.578125 0.3125 C 16.171875 1.476562 15.664062 2.554688 15.0625 3.546875 C 14.46875 4.535156 13.703125 5.488281 12.765625 6.40625 C 11.835938 7.320312 10.679688 8 9.296875 8.4375 C 7.910156 8.875 6.367188 8.992188 4.671875 8.796875 L 4.15625 4.984375 C 5.90625 4.515625 7.273438 3.910156 8.265625 3.171875 C 9.253906 2.429688 10.023438 1.429688 10.578125 0.171875 L 10.671875 0 L 9.453125 0 C 8.367188 0 7.664062 -0.523438 7.34375 -1.578125 L 0.3125 -21.5625 L 7.21875 -21.5625 L 11.234375 -7.609375 C 11.503906 -6.585938 11.722656 -5.507812 11.890625 -4.375 L 12.46875 -4.375 C 12.550781 -4.71875 12.691406 -5.257812 12.890625 -6 C 13.097656 -6.75 13.25 -7.285156 13.34375 -7.609375 L 17.3125 -21.5625 Z M 24.234375 -21.5625 "/></g></g></g></svg>